<svg width="44" height="37" viewBox="0 0 44 37" fill="none" xmlns="http://www.w3.org/2000/svg">
<path d="M0.235297 36.321V0.369318H11.4427V4.88636H6.08757V31.7898H11.4427V36.321H0.235297ZM31.3377 14.4034L25.7979 14.7443C25.7032 14.2708 25.4996 13.8447 25.1871 13.4659C24.8746 13.0777 24.4627 12.7699 23.9513 12.5426C23.4495 12.3059 22.8481 12.1875 22.1474 12.1875C21.2099 12.1875 20.4192 12.3864 19.7752 12.7841C19.1313 13.1723 18.8093 13.6932 18.8093 14.3466C18.8093 14.8674 19.0176 15.3078 19.4343 15.6676C19.851 16.0275 20.5659 16.3163 21.5792 16.5341L25.5281 17.3295C27.6493 17.7652 29.2307 18.4659 30.2724 19.4318C31.314 20.3977 31.8349 21.6667 31.8349 23.2386C31.8349 24.6686 31.4135 25.9233 30.5707 27.0028C29.7373 28.0824 28.5915 28.9252 27.1332 29.5312C25.6843 30.1278 24.0129 30.4261 22.119 30.4261C19.2307 30.4261 16.9296 29.8248 15.2156 28.6222C13.511 27.41 12.512 25.7623 12.2184 23.679L18.1701 23.3665C18.35 24.2472 18.7856 24.9195 19.4769 25.3835C20.1682 25.8381 21.0536 26.0653 22.1332 26.0653C23.1938 26.0653 24.046 25.8617 24.69 25.4545C25.3434 25.0379 25.6748 24.5028 25.6843 23.8494C25.6748 23.3002 25.4428 22.8504 24.9883 22.5C24.5337 22.1402 23.833 21.8655 22.886 21.6761L19.1076 20.9233C16.9769 20.4972 15.3907 19.7585 14.3491 18.7074C13.3169 17.6562 12.8008 16.3163 12.8008 14.6875C12.8008 13.286 13.1796 12.0786 13.9371 11.0653C14.7042 10.0521 15.779 9.27083 17.1616 8.72159C18.5536 8.17235 20.1824 7.89773 22.0479 7.89773C24.8036 7.89773 26.9722 8.48011 28.5536 9.64489C30.1445 10.8097 31.0726 12.3958 31.3377 14.4034ZM43.7611 0.369318V36.321H32.5538V31.7898H37.9089V4.88636H32.5538V0.369318H43.7611Z" fill="#5A88A4"/>
</svg>
