<svg width="190" height="39" viewBox="0 0 190 39" fill="none" xmlns="http://www.w3.org/2000/svg">
<path d="M0.671233 36.321V0.369318H11.8786V4.88636H6.52351V31.7898H11.8786V36.321H0.671233ZM31.7736 14.4034L26.2339 14.7443C26.1392 14.2708 25.9356 13.8447 25.6231 13.4659C25.3106 13.0777 24.8986 12.7699 24.3873 12.5426C23.8854 12.3059 23.2841 12.1875 22.5833 12.1875C21.6458 12.1875 20.8551 12.3864 20.2111 12.7841C19.5672 13.1723 19.2452 13.6932 19.2452 14.3466C19.2452 14.8674 19.4536 15.3078 19.8702 15.6676C20.2869 16.0275 21.0019 16.3163 22.0151 16.5341L25.964 17.3295C28.0852 17.7652 29.6666 18.4659 30.7083 19.4318C31.75 20.3977 32.2708 21.6667 32.2708 23.2386C32.2708 24.6686 31.8494 25.9233 31.0066 27.0028C30.1733 28.0824 29.0274 28.9252 27.5691 29.5312C26.1202 30.1278 24.4488 30.4261 22.5549 30.4261C19.6666 30.4261 17.3655 29.8248 15.6515 28.6222C13.9469 27.41 12.9479 25.7623 12.6543 23.679L18.606 23.3665C18.786 24.2472 19.2216 24.9195 19.9129 25.3835C20.6041 25.8381 21.4896 26.0653 22.5691 26.0653C23.6297 26.0653 24.482 25.8617 25.1259 25.4545C25.7793 25.0379 26.1108 24.5028 26.1202 23.8494C26.1108 23.3002 25.8788 22.8504 25.4242 22.5C24.9697 22.1402 24.2689 21.8655 23.3219 21.6761L19.5435 20.9233C17.4129 20.4972 15.8267 19.7585 14.785 18.7074C13.7528 17.6562 13.2367 16.3163 13.2367 14.6875C13.2367 13.286 13.6155 12.0786 14.3731 11.0653C15.1401 10.0521 16.2149 9.27083 17.5975 8.72159C18.9896 8.17235 20.6183 7.89773 22.4839 7.89773C25.2396 7.89773 27.4081 8.48011 28.9896 9.64489C30.5805 10.8097 31.5085 12.3958 31.7736 14.4034ZM39.9641 23.7216L39.9783 16.4631H40.859L47.8477 8.18182H54.7937L45.4045 19.1477H43.9698L39.9641 23.7216ZM34.4812 30V0.90909H40.5323V30H34.4812ZM48.1175 30L41.6971 20.4972L45.7312 16.2216L55.2056 30H48.1175ZM65.1219 30.4261C62.9155 30.4261 61.0074 29.9574 59.3975 29.0199C57.7971 28.0729 56.5613 26.7566 55.6901 25.071C54.8189 23.3759 54.3833 21.411 54.3833 19.1761C54.3833 16.9223 54.8189 14.9527 55.6901 13.267C56.5613 11.572 57.7971 10.2557 59.3975 9.31818C61.0074 8.37121 62.9155 7.89773 65.1219 7.89773C67.3284 7.89773 69.2318 8.37121 70.8322 9.31818C72.442 10.2557 73.6825 11.572 74.5538 13.267C75.425 14.9527 75.8606 16.9223 75.8606 19.1761C75.8606 21.411 75.425 23.3759 74.5538 25.071C73.6825 26.7566 72.442 28.0729 70.8322 29.0199C69.2318 29.9574 67.3284 30.4261 65.1219 30.4261ZM65.1503 25.7386C66.1541 25.7386 66.9922 25.4545 67.6646 24.8864C68.3369 24.3087 68.8435 23.5227 69.1844 22.5284C69.5348 21.5341 69.71 20.4025 69.71 19.1335C69.71 17.8646 69.5348 16.733 69.1844 15.7386C68.8435 14.7443 68.3369 13.9583 67.6646 13.3807C66.9922 12.803 66.1541 12.5142 65.1503 12.5142C64.1371 12.5142 63.2848 12.803 62.5935 13.3807C61.9117 13.9583 61.3956 14.7443 61.0452 15.7386C60.7043 16.733 60.5339 17.8646 60.5339 19.1335C60.5339 20.4025 60.7043 21.5341 61.0452 22.5284C61.3956 23.5227 61.9117 24.3087 62.5935 24.8864C63.2848 25.4545 64.1371 25.7386 65.1503 25.7386ZM78.1952 38.1818V8.18182H84.1611V11.8466H84.431C84.6962 11.2595 85.0797 10.6629 85.5816 10.0568C86.093 9.44129 86.7558 8.92992 87.5702 8.52273C88.3941 8.10606 89.4168 7.89773 90.6384 7.89773C92.2293 7.89773 93.6971 8.31439 95.0418 9.14773C96.3865 9.97159 97.4613 11.2169 98.2663 12.8835C99.0712 14.5407 99.4736 16.6193 99.4736 19.1193C99.4736 21.553 99.0807 23.608 98.2947 25.2841C97.5182 26.9508 96.4575 28.215 95.1129 29.0767C93.7776 29.929 92.2814 30.3551 90.6242 30.3551C89.45 30.3551 88.4509 30.161 87.6271 29.7727C86.8127 29.3845 86.145 28.8968 85.6242 28.3097C85.1034 27.7131 84.7057 27.1117 84.431 26.5057H84.2464V38.1818H78.1952ZM84.1185 19.0909C84.1185 20.3883 84.2985 21.5199 84.6583 22.4858C85.0182 23.4517 85.539 24.2045 86.2208 24.7443C86.9026 25.2746 87.7312 25.5398 88.7066 25.5398C89.6914 25.5398 90.5248 25.2699 91.2066 24.7301C91.8884 24.1809 92.4045 23.4233 92.7549 22.4574C93.1147 21.482 93.2947 20.3598 93.2947 19.0909C93.2947 17.8314 93.1195 16.7235 92.7691 15.767C92.4187 14.8106 91.9026 14.0625 91.2208 13.5227C90.539 12.983 89.7009 12.7131 88.7066 12.7131C87.7218 12.7131 86.8884 12.9735 86.2066 13.4943C85.5343 14.0152 85.0182 14.7538 84.6583 15.7102C84.2985 16.6667 84.1185 17.7936 84.1185 19.0909ZM105.445 30.3693C104.507 30.3693 103.702 30.0379 103.03 29.375C102.367 28.7027 102.036 27.8977 102.036 26.9602C102.036 26.0322 102.367 25.2367 103.03 24.5739C103.702 23.911 104.507 23.5795 105.445 23.5795C106.354 23.5795 107.149 23.911 107.831 24.5739C108.513 25.2367 108.854 26.0322 108.854 26.9602C108.854 27.5852 108.693 28.1581 108.371 28.679C108.058 29.1903 107.646 29.6023 107.135 29.9148C106.624 30.2178 106.06 30.3693 105.445 30.3693ZM120.262 30.3551C118.604 30.3551 117.103 29.929 115.759 29.0767C114.424 28.215 113.363 26.9508 112.577 25.2841C111.8 23.608 111.412 21.553 111.412 19.1193C111.412 16.6193 111.815 14.5407 112.62 12.8835C113.424 11.2169 114.495 9.97159 115.83 9.14773C117.174 8.31439 118.647 7.89773 120.247 7.89773C121.469 7.89773 122.487 8.10606 123.301 8.52273C124.125 8.92992 124.788 9.44129 125.29 10.0568C125.801 10.6629 126.19 11.2595 126.455 11.8466H126.639V0.90909H132.676V30H126.71V26.5057H126.455C126.171 27.1117 125.768 27.7131 125.247 28.3097C124.736 28.8968 124.068 29.3845 123.245 29.7727C122.43 30.161 121.436 30.3551 120.262 30.3551ZM122.179 25.5398C123.155 25.5398 123.978 25.2746 124.651 24.7443C125.333 24.2045 125.853 23.4517 126.213 22.4858C126.583 21.5199 126.767 20.3883 126.767 19.0909C126.767 17.7936 126.587 16.6667 126.227 15.7102C125.868 14.7538 125.347 14.0152 124.665 13.4943C123.983 12.9735 123.155 12.7131 122.179 12.7131C121.185 12.7131 120.347 12.983 119.665 13.5227C118.983 14.0625 118.467 14.8106 118.117 15.767C117.766 16.7235 117.591 17.8314 117.591 19.0909C117.591 20.3598 117.766 21.482 118.117 22.4574C118.477 23.4233 118.993 24.1809 119.665 24.7301C120.347 25.2699 121.185 25.5398 122.179 25.5398ZM145.995 30.4261C143.75 30.4261 141.819 29.9716 140.199 29.0625C138.589 28.1439 137.349 26.8466 136.478 25.1705C135.606 23.4848 135.171 21.4915 135.171 19.1903C135.171 16.946 135.606 14.9763 136.478 13.2812C137.349 11.5862 138.575 10.2652 140.157 9.31818C141.748 8.37121 143.613 7.89773 145.753 7.89773C147.193 7.89773 148.533 8.12973 149.773 8.59375C151.023 9.0483 152.112 9.73485 153.04 10.6534C153.978 11.572 154.707 12.7273 155.228 14.1193C155.748 15.5019 156.009 17.1212 156.009 18.9773V20.6392H137.586V16.8892H150.313C150.313 16.018 150.123 15.2462 149.745 14.5739C149.366 13.9015 148.84 13.3759 148.168 12.9972C147.505 12.6089 146.733 12.4148 145.853 12.4148C144.934 12.4148 144.12 12.6278 143.409 13.054C142.709 13.4706 142.159 14.0341 141.762 14.7443C141.364 15.4451 141.16 16.2263 141.151 17.0881V20.6534C141.151 21.733 141.35 22.6657 141.748 23.4517C142.155 24.2377 142.728 24.8438 143.466 25.2699C144.205 25.696 145.081 25.9091 146.094 25.9091C146.766 25.9091 147.382 25.8144 147.941 25.625C148.499 25.4356 148.978 25.1515 149.375 24.7727C149.773 24.3939 150.076 23.9299 150.284 23.3807L155.881 23.75C155.597 25.0947 155.015 26.2689 154.134 27.2727C153.263 28.267 152.136 29.0436 150.753 29.6023C149.38 30.1515 147.794 30.4261 145.995 30.4261ZM178.113 8.18182L170.485 30H163.667L156.039 8.18182H162.431L166.962 23.7926H167.189L171.706 8.18182H178.113ZM189.325 0.369318V36.321H178.118V31.7898H183.473V4.88636H178.118V0.369318H189.325Z" fill="#5A88A4"/>
</svg>
